# xmcd CD database file
#
# Track frame offsets:
#	150
#	16340
#	28182
#	43845
#
# Disc length: 807 seconds
#
# Revision: 0
# Processed by: cddbd v1.5.1PL0 Copyright (c) Steve Scherf et al.
# Submitted via: CDex 1.51
#
DISCID=2c032504
DTITLE=soulkids - prism E.P.
DYEAR=2004
DGENRE=ロック (日本)
TTITLE0=冬虫夏草
TTITLE1=CHARLESTON
TTITLE2=エイプリルフール
TTITLE3=ノスタルジック
EXTD=YEAR: 2004
EXTT0=
EXTT1=
EXTT2=
EXTT3=
PLAYORDER=
